# xmcd
#
# Track frame offsets:
#   150
#   18712
#   39369
#   56860
#   77660
#   95831
#   111711
#   132673
#   148775
#
# Disc length: 2291 seconds
#
# Revision: 0
# Processed by: cddbd v1.5.2PL0 Copyright (c) Steve Scherf et al.
# Submitted via: GXTranscoder 2.0.1939
#
DISCID=8b08f109
DTITLE=Hoffmann - Insellieder
DYEAR=1900
DGENRE=UnClassifiable
TTITLE0=1
TTITLE1=02
TTITLE2=Ich will leben
TTITLE3=Heute rette ich die Welt
TTITLE4=5
TTITLE5=6
TTITLE6=7
TTITLE7=8
TTITLE8=9
EXTD=
EXTT0=
EXTT1=
EXTT2=
EXTT3=
EXTT4=
EXTT5=
EXTT6=
EXTT7=
EXTT8=
PLAYORDER=
